<?xml version="1.0" encoding="utf-8"?>
<!-- Generator: Adobe Illustrator 24.0.1, SVG Export Plug-In . SVG Version: 6.00 Build 0)  -->
<svg version="1.1" id="Layer_1" xmlns="http://www.w3.org/2000/svg" xmlns:xlink="http://www.w3.org/1999/xlink" x="0px" y="0px"
	 viewBox="0 0 118.38 78.17" style="enable-background:new 0 0 118.38 78.17;" xml:space="preserve">
<style type="text/css">
	.st0{fill:#FFFFFF;}
</style>
<g>
	<path class="st0" d="M61.35,78.17c-3.57,0-7.14,0-10.71,0c-0.77,0-0.82-0.06-0.82-0.83c0-6.77,0-13.54,0-20.31
		c0-0.97,0-0.97-0.94-0.97c-2.64,0-5.29,0-7.93,0c-0.16,0-0.38,0.08-0.47-0.11c-0.09-0.19,0.06-0.32,0.19-0.44
		c2.93-2.91,5.86-5.82,8.77-8.74c2.04-2.04,4.04-4.11,6.08-6.15c1.69-1.69,3.4-3.36,5.11-5.04c0.07-0.07,0.12-0.15,0.19-0.22
		c0.39-0.47,0.59-0.49,1.03-0.05c1.6,1.59,3.19,3.19,4.79,4.79c5.11,5.12,10.23,10.23,15.34,15.35c0.14,0.14,0.4,0.26,0.3,0.51
		c-0.09,0.22-0.34,0.11-0.52,0.11c-2.7,0.01-5.4,0-8.1,0c-0.77,0-0.81,0.04-0.81,0.82c0,6.81,0,13.62,0,20.43
		c0,0.84-0.01,0.85-0.83,0.85C68.45,78.17,64.9,78.17,61.35,78.17z"/>
	<path class="st0" d="M33.13,77.97c-2.3,0-4.59,0.06-6.89-0.02c-1.85-0.06-3.7-0.27-5.52-0.72c-1.42-0.35-2.84-0.67-4.18-1.26
		c-1.74-0.76-3.44-1.61-5.01-2.72c-1.32-0.94-2.58-1.94-3.72-3.09C6.27,68.61,4.88,66.91,3.79,65c-0.89-1.55-1.75-3.13-2.25-4.85
		c-0.26-0.91-0.54-1.82-0.75-2.74c-0.52-2.21-0.88-4.44-0.75-6.7c0.08-1.31,0.22-2.62,0.49-3.93c0.29-1.41,0.64-2.79,1.1-4.14
		c1-2.91,2.55-5.51,4.47-7.91c1.66-2.07,3.59-3.82,5.78-5.26c2.09-1.37,4.3-2.54,6.75-3.17c0.73-0.19,0.73-0.87,0.9-1.37
		c1.19-3.38,3.16-6.19,5.84-8.56c1.77-1.56,3.77-2.73,5.94-3.61c1.27-0.51,2.61-0.85,3.99-1.08c1.28-0.22,2.56-0.3,3.84-0.3
		c1.48,0,2.95,0.14,4.39,0.52c0.39,0.1,0.73,0.06,1.03-0.29c2.76-3.23,6.07-5.79,9.8-7.77c1.84-0.98,3.78-1.76,5.8-2.35
		c1.31-0.38,2.63-0.66,3.95-0.94c1.06-0.22,2.15-0.35,3.24-0.44C68.7,0,70.04-0.02,71.39,0.02c1.8,0.05,3.59,0.29,5.36,0.68
		c1.54,0.34,3.07,0.68,4.56,1.2c1.95,0.67,3.82,1.52,5.6,2.55c2.99,1.72,5.66,3.85,8.01,6.37c2.48,2.65,4.45,5.63,5.97,8.93
		c0.71,1.54,1.28,3.13,1.77,4.74c0.27,0.87,0.46,1.77,0.62,2.67c0.09,0.5,0.47,0.68,0.8,0.84c4.01,2.02,7.23,4.92,9.76,8.61
		c1.76,2.57,2.96,5.38,3.75,8.41c0.76,2.94,0.88,5.91,0.73,8.91c-0.04,0.83-0.18,1.7-0.4,2.54c-0.28,1.05-0.49,2.12-0.79,3.17
		c-0.51,1.75-1.28,3.37-2.17,4.95c-1.29,2.29-2.9,4.35-4.83,6.15c-1.85,1.73-3.88,3.2-6.15,4.34c-1.68,0.85-3.41,1.57-5.24,1.98
		c-1.3,0.29-2.6,0.59-3.94,0.72c-4.18,0.41-8.36,0.08-12.54,0.22c-0.58,0.02-0.76-0.17-0.76-0.75c0.03-3.24,0.03-6.48,0-9.73
		c-0.01-0.58,0.19-0.7,0.72-0.69c3.24,0.02,6.48,0.06,9.73,0c3.01-0.06,5.81-0.88,8.34-2.57c2.06-1.37,3.72-3.11,4.93-5.26
		c0.79-1.4,1.46-2.89,1.73-4.48c0.31-1.83,0.44-3.69,0.09-5.56c-0.13-0.7-0.15-1.45-0.34-2.14c-0.35-1.31-0.83-2.59-1.5-3.78
		c-1.95-3.47-4.84-5.77-8.71-6.77c-0.96-0.25-1.93-0.54-2.95-0.43c-0.42,0.05-0.57-0.15-0.58-0.57c-0.06-1.8-0.23-3.61-0.59-5.37
		c-0.44-2.14-1.17-4.19-2.08-6.18c-1.09-2.37-2.63-4.44-4.46-6.26c-1.18-1.18-2.53-2.18-3.96-3.06c-1.82-1.11-3.78-1.85-5.8-2.45
		c-1.26-0.37-2.57-0.58-3.9-0.66c-0.83-0.05-1.65-0.16-2.48-0.11c-1.34,0.08-2.67,0.18-4,0.39c-1.88,0.29-3.64,0.89-5.37,1.61
		c-1.93,0.8-3.65,1.94-5.25,3.3c-1.86,1.58-3.47,3.39-4.81,5.43c-0.73,1.12-1.39,2.3-1.86,3.56c-0.24,0.65-0.39,0.7-0.84,0.21
		c-1.63-1.81-3.68-2.87-6.07-3.11c-1.66-0.17-3.31-0.01-4.94,0.57c-1.93,0.69-3.63,1.66-5.04,3.14c-0.95,1-1.6,2.17-2.15,3.44
		c-0.69,1.59-0.46,3.2-0.51,4.82c-0.01,0.37,0.46,0.79,0.12,1.07c-0.2,0.17-0.69,0-1.05,0c-0.71-0.01-1.43,0-2.14-0.01
		c-2.68-0.02-5.08,0.84-7.33,2.24c-2.28,1.42-3.98,3.38-5.25,5.71c-0.93,1.71-1.57,3.55-1.81,5.48c-0.27,2.21-0.23,4.41,0.43,6.57
		c0.76,2.46,1.96,4.66,3.78,6.49c1.41,1.42,3.01,2.61,4.91,3.37c1.1,0.44,2.22,0.84,3.38,1.09c0.88,0.18,1.79,0.28,2.69,0.28
		c4.63,0.03,9.26,0.01,13.89,0.01c0.75,0,0.76,0,0.76,0.73c0,3.26-0.01,6.52,0.01,9.78c0,0.52-0.15,0.65-0.65,0.65
		C38.11,77.96,35.62,77.98,33.13,77.97C33.13,77.97,33.13,77.97,33.13,77.97z"/>
</g>
</svg>
