<svg id="Layer_1" data-name="Layer 1" xmlns="http://www.w3.org/2000/svg" viewBox="0 0 118.38 78.17"><defs><style>.cls-1{fill:#0058a5;}</style></defs><title>iconCloudBlue</title><path class="cls-1" d="M61.35,78.08H50.65c-.77,0-.82-.06-.82-.83q0-10.16,0-20.31c0-1,0-1-.94-1H41c-.16,0-.38.08-.47-.11s.06-.32.18-.44q4.39-4.37,8.77-8.74c2-2,4.05-4.11,6.08-6.15,1.69-1.7,3.41-3.36,5.11-5,.07-.07.12-.15.18-.22.4-.48.6-.49,1-.06L66.63,40,82,55.35c.15.14.41.26.3.51s-.35.11-.52.11H73.64c-.77,0-.81.05-.81.83V77.23c0,.83,0,.85-.83.85Z" transform="translate(0 0.09)"/><path class="cls-1" d="M33.13,77.88c-2.3,0-4.59.06-6.89,0a26.52,26.52,0,0,1-5.52-.72,27.11,27.11,0,0,1-4.17-1.26,27.6,27.6,0,0,1-5-2.72,28.24,28.24,0,0,1-3.72-3.09,24.89,24.89,0,0,1-4-5.17,21.84,21.84,0,0,1-2.26-4.85c-.26-.91-.54-1.82-.75-2.74A23.1,23.1,0,0,1,0,50.61a27.77,27.77,0,0,1,.49-3.93,36.55,36.55,0,0,1,1.1-4.14,26.36,26.36,0,0,1,4.47-7.91,24.9,24.9,0,0,1,5.78-5.26,22.85,22.85,0,0,1,6.76-3.17c.72-.18.72-.87.9-1.36A20.39,20.39,0,0,1,31.3,12.68a19.46,19.46,0,0,1,4-1.09,22.5,22.5,0,0,1,3.84-.29,17,17,0,0,1,4.38.52.94.94,0,0,0,1-.29,33.32,33.32,0,0,1,9.8-7.78,31.46,31.46,0,0,1,5.8-2.35c1.31-.38,2.63-.66,4-.94A26.32,26.32,0,0,1,67.35,0a38.92,38.92,0,0,1,4-.09,29.45,29.45,0,0,1,5.36.68,37.6,37.6,0,0,1,4.55,1.2,31.78,31.78,0,0,1,5.6,2.55,34.49,34.49,0,0,1,8,6.36,33.79,33.79,0,0,1,6,8.93,35.66,35.66,0,0,1,1.78,4.74,24.76,24.76,0,0,1,.62,2.68c.09.49.47.67.8.83a25.62,25.62,0,0,1,9.75,8.61,26.19,26.19,0,0,1,3.75,8.41,29.67,29.67,0,0,1,.74,8.9,13.25,13.25,0,0,1-.4,2.55c-.28,1.05-.49,2.12-.8,3.17A23.73,23.73,0,0,1,115,64.49a25.2,25.2,0,0,1-4.83,6.14A26.25,26.25,0,0,1,104,75a23.06,23.06,0,0,1-5.24,2,30.69,30.69,0,0,1-3.94.72c-4.18.42-8.37.08-12.54.22-.59,0-.76-.17-.76-.76q0-4.86,0-9.72c0-.58.19-.7.72-.69,3.25,0,6.49.06,9.73,0a15.54,15.54,0,0,0,13.27-7.83A14.27,14.27,0,0,0,107,54.42a16,16,0,0,0,.09-5.57c-.13-.7-.16-1.45-.34-2.14a16.2,16.2,0,0,0-1.5-3.78,13.55,13.55,0,0,0-8.71-6.77,8.1,8.1,0,0,0-2.94-.42c-.42,0-.57-.15-.59-.57a32.33,32.33,0,0,0-.59-5.38,28.2,28.2,0,0,0-2.08-6.17,21.58,21.58,0,0,0-4.46-6.27,21.91,21.91,0,0,0-4-3.06,24.23,24.23,0,0,0-5.8-2.45,17.78,17.78,0,0,0-3.9-.66,18.7,18.7,0,0,0-2.48-.1c-1.34.08-2.67.18-4,.39a23.5,23.5,0,0,0-5.36,1.6,19.94,19.94,0,0,0-5.25,3.3,25.08,25.08,0,0,0-4.8,5.43,17.59,17.59,0,0,0-1.87,3.57c-.24.65-.39.7-.83.2a9.22,9.22,0,0,0-6.08-3.11,11.15,11.15,0,0,0-4.94.57,12.4,12.4,0,0,0-5,3.14,11.69,11.69,0,0,0-2.16,3.44c-.69,1.59-.46,3.21-.51,4.83,0,.37.46.78.13,1.06s-.69,0-1,0H25.8a13.38,13.38,0,0,0-7.33,2.25,15,15,0,0,0-5.25,5.71,16.17,16.17,0,0,0-1.38,12A15.46,15.46,0,0,0,15.61,62a14.74,14.74,0,0,0,4.91,3.37,20.44,20.44,0,0,0,3.38,1.08,12.8,12.8,0,0,0,2.69.28c4.63,0,9.26,0,13.89,0,.75,0,.76,0,.76.73,0,3.26,0,6.52,0,9.78,0,.52-.15.65-.65.65-2.49,0-5,0-7.47,0Z" transform="translate(0 0.09)"/></svg>