<?xml version="1.0" encoding="utf-8"?>
<!-- Generator: Adobe Illustrator 17.0.0, SVG Export Plug-In . SVG Version: 6.00 Build 0)  -->
<!DOCTYPE svg PUBLIC "-//W3C//DTD SVG 1.1//EN" "http://www.w3.org/Graphics/SVG/1.1/DTD/svg11.dtd">
<svg version="1.1" id="Layer_1" xmlns="http://www.w3.org/2000/svg" xmlns:xlink="http://www.w3.org/1999/xlink" x="0px" y="0px"
	 width="1224px" height="410px" viewBox="0 0 1224 410" enable-background="new 0 0 1224 410" xml:space="preserve">
<g>
	<path fill-rule="evenodd" clip-rule="evenodd" fill="#0073BD" d="M1198.676,125.964c3.033,0,5.984,0.778,8.88,2.336
		c2.879,1.557,5.124,3.775,6.736,6.663c1.612,2.897,2.417,5.92,2.417,9.053c0,3.114-0.805,6.092-2.372,8.971
		c-1.602,2.87-3.81,5.088-6.69,6.681c-2.852,1.584-5.839,2.381-8.971,2.381c-3.123,0-6.11-0.797-8.98-2.381
		c-2.862-1.593-5.088-3.811-6.681-6.681c-1.593-2.878-2.399-5.857-2.399-8.971c0-3.133,0.815-6.156,2.436-9.053
		c1.612-2.888,3.866-5.106,6.763-6.663C1192.692,126.742,1195.643,125.964,1198.676,125.964z M1198.676,128.951
		c-2.535,0-5.006,0.652-7.396,1.955c-2.408,1.294-4.282,3.15-5.63,5.558c-1.359,2.417-2.047,4.943-2.047,7.55
		c0,2.598,0.669,5.096,2.001,7.477c1.331,2.381,3.187,4.237,5.594,5.568c2.382,1.33,4.88,2,7.478,2c2.607,0,5.097-0.67,7.487-2
		c2.39-1.331,4.254-3.187,5.577-5.568c1.312-2.381,1.981-4.879,1.981-7.477c0-2.607-0.669-5.133-2.028-7.55
		c-1.339-2.408-3.214-4.264-5.63-5.558C1203.664,129.603,1201.202,128.951,1198.676,128.951z M1190.765,153.973v-19.399h6.671
		c2.281,0,3.938,0.181,4.952,0.542c1.022,0.362,1.837,0.978,2.444,1.874s0.914,1.838,0.914,2.843c0,1.413-0.506,2.652-1.529,3.702
		c-1.014,1.05-2.363,1.647-4.038,1.765c0.68,0.29,1.231,0.633,1.648,1.024c0.788,0.769,1.738,2.045,2.869,3.855l2.363,3.794h-3.793
		l-1.729-3.06c-1.366-2.408-2.462-3.911-3.286-4.518c-0.58-0.443-1.412-0.66-2.517-0.651h-1.847v8.229H1190.765z M1193.887,143.055
		h3.811c1.82,0,3.061-0.272,3.72-0.815c0.67-0.544,0.997-1.258,0.997-2.136c0-0.571-0.163-1.087-0.479-1.539
		c-0.327-0.444-0.761-0.788-1.322-1.005c-0.58-0.226-1.621-0.335-3.16-0.335h-3.566V143.055z"/>
	<g>
		<path fill-rule="evenodd" clip-rule="evenodd" fill="#0073BD" d="M75.317,147.02c6.998,0,12.203-1.394,15.598-4.2
			c3.403-2.798,5.105-7.052,5.105-12.801c0-5.449-1.774-9.632-5.314-12.573c-3.531-2.942-8.6-4.409-15.181-4.409H57.674v33.984
			H75.317z M20.205,234.152V85.372h54.886c20.142,0,35.061,3.649,44.747,10.954c9.677,7.296,14.53,18.467,14.53,33.504
			c0,15.444-5.178,27.013-15.544,34.662c-10.347,7.668-25.918,11.487-46.703,11.487H57.674v58.173H20.205z"/>
		<path fill-rule="evenodd" clip-rule="evenodd" fill="#0073BD" d="M142.886,234.152V133.296h31.802v27.014
			c5.386-10.176,10.574-17.49,15.543-21.908c4.961-4.427,10.401-6.636,16.286-6.636c2.915,0,5.975,0.597,9.207,1.792
			c3.232,1.195,6.835,3.06,10.809,5.586l-8.519,28.995c-3.186-2.497-6.128-4.318-8.835-5.467c-2.689-1.151-5.359-1.721-7.984-1.721
			c-6.029,0-11.442,2.671-16.231,7.994c-4.798,5.324-8.22,12.6-10.275,21.836v43.37H142.886z"/>
		<path fill-rule="evenodd" clip-rule="evenodd" fill="#0073BD" d="M256.823,183.829c0,8.582,2.073,15.444,6.228,20.594
			c4.146,5.151,9.623,7.722,16.431,7.722c6.88,0,12.375-2.571,16.484-7.722c4.12-5.15,6.175-12.012,6.175-20.594
			c0-8.591-2.073-15.5-6.22-20.712c-4.154-5.224-9.632-7.823-16.439-7.823c-6.735,0-12.203,2.598-16.376,7.823
			C258.913,168.329,256.823,175.238,256.823,183.829z M224.143,183.883c0-15.534,5.123-28.172,15.371-37.922
			c10.239-9.759,23.546-14.629,39.922-14.629c16.431,0,29.81,4.889,40.13,14.674c10.32,9.795,15.471,22.415,15.471,37.876
			c0,15.38-5.133,27.936-15.417,37.65c-10.275,9.713-23.682,14.574-40.184,14.574c-16.376,0-29.683-4.843-39.922-14.52
			C229.266,211.91,224.143,199.336,224.143,183.883z"/>
		<path fill-rule="evenodd" clip-rule="evenodd" fill="#F9A138" d="M385.985,115.427v88.662h27.746
			c12.611,0,22.903-4.137,30.87-12.412c7.985-8.256,11.968-18.92,11.968-31.974c0-13.063-3.983-23.7-11.968-31.929
			c-7.966-8.228-18.259-12.348-30.87-12.348H385.985z M348.725,234.152V85.372h55.863c15.951,0,28.326,1.205,37.124,3.621
			c8.799,2.409,16.874,6.373,24.261,11.904c9.505,7.16,16.702,15.724,21.599,25.682c4.889,9.958,7.333,21.002,7.333,33.123
			c0,13.253-2.969,25.293-8.935,36.102c-5.957,10.818-14.575,19.827-25.845,27.068c-6.391,4.038-13.452,6.925-21.184,8.662
			c-7.731,1.739-19.182,2.617-34.354,2.617H348.725z"/>
		<path fill-rule="evenodd" clip-rule="evenodd" fill="#F9A138" d="M534.629,183.829c0,8.582,2.073,15.444,6.219,20.594
			c4.146,5.151,9.623,7.722,16.44,7.722c6.88,0,12.375-2.571,16.484-7.722c4.11-5.15,6.165-12.012,6.165-20.594
			c0-8.591-2.073-15.5-6.219-20.712c-4.155-5.224-9.622-7.823-16.43-7.823c-6.745,0-12.203,2.598-16.385,7.823
			C536.721,168.329,534.629,175.238,534.629,183.829z M501.95,183.883c0-15.534,5.114-28.172,15.362-37.922
			c10.238-9.759,23.555-14.629,39.922-14.629c16.449,0,29.828,4.889,40.139,14.674c10.311,9.795,15.462,22.415,15.462,37.876
			c0,15.38-5.133,27.936-15.416,37.65c-10.275,9.713-23.673,14.574-40.185,14.574c-16.367,0-29.684-4.843-39.922-14.52
			C507.064,211.91,501.95,199.336,501.95,183.883z"/>
		<path fill-rule="evenodd" clip-rule="evenodd" fill="#F9A138" d="M708.44,229.607c-4.743,2.2-9.767,3.839-15.055,4.898
			c-5.277,1.068-11.007,1.602-17.181,1.602c-18.078,0-32.399-4.707-42.973-14.095c-10.564-9.406-15.851-22.107-15.851-38.13
			c0-15.897,5.232-28.661,15.68-38.302c10.464-9.65,24.414-14.466,41.85-14.466c5.53,0,10.917,0.552,16.159,1.639
			c5.25,1.104,10.455,2.752,15.633,4.934v24.795c-5.395-2.218-10.31-3.865-14.747-4.934c-4.426-1.068-8.528-1.602-12.293-1.602
			c-9.071,0-16.168,2.462-21.283,7.396c-5.114,4.932-7.667,11.759-7.667,20.486c0,8.862,2.606,15.724,7.839,20.585
			c5.215,4.87,12.683,7.296,22.415,7.296c4.182,0,8.518-0.553,13-1.666c4.471-1.104,9.296-2.806,14.474-5.088V229.607z"/>
		<path fill-rule="evenodd" clip-rule="evenodd" fill="#0073BD" d="M724.898,155.294h-14.367v-6.798l41.171-44.611h4.789v29.411
			h34.418v21.998h-34.418v37.252c0,7.74,1.096,12.899,3.296,15.498c2.2,2.589,6.192,3.874,12.002,3.874
			c2.825,0,5.822-0.398,8.973-1.212c3.15-0.834,6.544-2.083,10.147-3.795l0.218,23.764c-5.106,1.919-10.221,3.331-15.336,4.263
			c-5.105,0.923-10.184,1.384-15.216,1.384c-12.855,0-22.007-3.303-27.475-9.912c-5.467-6.59-8.201-17.959-8.201-34.083V155.294z"/>
		<path fill-rule="evenodd" clip-rule="evenodd" fill="#0073BD" d="M801.275,234.152V133.296h31.811v100.856H801.275z
			 M800.198,100.671c0-4.752,1.639-8.781,4.933-12.085c3.296-3.314,7.306-4.961,12.05-4.961c4.825,0,8.853,1.639,12.111,4.897
			c3.259,3.268,4.888,7.324,4.888,12.149c0,4.762-1.629,8.772-4.888,12.04c-3.258,3.26-7.287,4.898-12.111,4.898
			c-4.744,0-8.754-1.656-12.05-4.952C801.836,109.352,800.198,105.36,800.198,100.671z"/>
		<polygon fill-rule="evenodd" clip-rule="evenodd" fill="#0073BD" points="881.979,236.107 835.349,133.296 868.908,133.296 
			891.141,187.966 912.016,133.296 945.157,133.296 901.37,236.107 		"/>
		<path fill-rule="evenodd" clip-rule="evenodd" fill="#F9A138" d="M947.375,100.671c0-4.752,1.648-8.781,4.943-12.085
			c3.296-3.314,7.315-4.961,12.05-4.961c4.825,0,8.853,1.639,12.111,4.897c3.259,3.268,4.888,7.324,4.888,12.149
			c0,4.762-1.629,8.772-4.888,12.04c-3.258,3.26-7.287,4.898-12.111,4.898c-4.735,0-8.754-1.656-12.05-4.952
			C949.023,109.352,947.375,105.36,947.375,100.671z"/>
		<rect x="948.47" y="133.296" fill-rule="evenodd" clip-rule="evenodd" fill="#0073BD" width="31.802" height="100.856"/>
		<path fill-rule="evenodd" clip-rule="evenodd" fill="#0073BD" d="M1001.936,155.294h-14.384v-6.798l41.179-44.611h4.789v29.411
			h34.418v21.998h-34.418v37.252c0,7.74,1.096,12.899,3.296,15.498c2.19,2.589,6.202,3.874,12.005,3.874
			c2.833,0,5.82-0.398,8.98-1.212c3.15-0.834,6.527-2.083,10.137-3.795l0.219,23.764c-5.115,1.919-10.221,3.331-15.337,4.263
			c-5.113,0.923-10.184,1.384-15.216,1.384c-12.855,0-22.007-3.303-27.466-9.912c-5.476-6.59-8.201-17.959-8.201-34.083V155.294z"/>
		<polygon fill-rule="evenodd" clip-rule="evenodd" fill="#0073BD" points="1105.08,283.589 1071.766,283.589 1101.677,217.957 
			1063.276,133.296 1097.313,133.296 1117.745,182.544 1139.562,133.296 1173.084,133.296 		"/>
	</g>
</g>
</svg>
