<svg id="Layer_1" data-name="Layer 1" xmlns="http://www.w3.org/2000/svg" viewBox="0 0 1224 200"><defs><style>.cls-1,.cls-3{fill:#fff;}.cls-1,.cls-2{fill-rule:evenodd;}.cls-2{fill:#f9a138;}</style></defs><path class="cls-1" d="M1198.7,42.4a19.33,19.33,0,0,1,8.9,2.3,16.62,16.62,0,0,1,6.7,6.7,18.26,18.26,0,0,1,0,18.1,16.62,16.62,0,0,1-6.7,6.7,18.12,18.12,0,0,1-9,2.4,18.4,18.4,0,0,1-9-2.4,16.62,16.62,0,0,1-6.7-6.7,18.4,18.4,0,0,1-2.4-9,18.77,18.77,0,0,1,2.4-9.1,16.87,16.87,0,0,1,6.8-6.7A18.55,18.55,0,0,1,1198.7,42.4Zm0,3a15.52,15.52,0,0,0-7.4,2,13.16,13.16,0,0,0-5.6,5.6,14.66,14.66,0,0,0-2,7.6,15.6,15.6,0,0,0,2,7.5,14.36,14.36,0,0,0,5.6,5.6,15.06,15.06,0,0,0,15,0,13.73,13.73,0,0,0,5.6-5.6,15.6,15.6,0,0,0,2-7.5,16.28,16.28,0,0,0-2-7.6,13.73,13.73,0,0,0-5.6-5.6A15.72,15.72,0,0,0,1198.7,45.4Zm-7.9,25V51h6.7a19.61,19.61,0,0,1,5,.5,5,5,0,0,1,2.4,1.9,4.9,4.9,0,0,1,.9,2.8,5.14,5.14,0,0,1-1.5,3.7,6.21,6.21,0,0,1-4,1.8,4.88,4.88,0,0,1,1.6,1,22.84,22.84,0,0,1,2.9,3.9l2.4,3.8h-3.8l-1.7-3.1a17,17,0,0,0-3.3-4.5,4.37,4.37,0,0,0-2.5-.7h-1.8v8.2h-3.3Zm3.1-10.9h3.8a6.3,6.3,0,0,0,3.7-.8,2.51,2.51,0,0,0,1-2.1,2.46,2.46,0,0,0-.5-1.5,3.25,3.25,0,0,0-1.3-1,11.22,11.22,0,0,0-3.2-.3h-3.6l.1,5.7Z"/><path class="cls-1" d="M75.3,63.4q10.5,0,15.6-4.2c3.4-2.8,5.1-7.1,5.1-12.8,0-5.4-1.8-9.6-5.3-12.6s-8.6-4.4-15.2-4.4H57.7v34ZM20.2,150.6V1.8H75.1c20.1,0,35.1,3.6,44.7,11s14.5,18.5,14.5,33.5c0,15.4-5.2,27-15.5,34.7S92.9,92.5,72.1,92.5H57.7v58.2l-37.5-.1Z"/><path class="cls-1" d="M142.9,150.6V49.7h31.8v27c5.4-10.2,10.6-17.5,15.5-21.9s10.4-6.6,16.3-6.6a26.32,26.32,0,0,1,9.2,1.8,62.52,62.52,0,0,1,10.8,5.6l-8.5,29a42.75,42.75,0,0,0-8.8-5.5,19.53,19.53,0,0,0-8-1.7c-6,0-11.4,2.7-16.2,8s-8.2,12.6-10.3,21.8v43.4Z"/><path class="cls-1" d="M256.8,100.2c0,8.6,2.1,15.4,6.2,20.6s9.6,7.7,16.4,7.7a20.12,20.12,0,0,0,16.5-7.7c4.1-5.1,6.2-12,6.2-20.6s-2.1-15.5-6.2-20.7a21.14,21.14,0,0,0-32.8,0Q256.8,87.3,256.8,100.2Zm-32.7.1c0-15.5,5.1-28.2,15.4-37.9S263,47.8,279.4,47.8s29.8,4.9,40.1,14.7S335,84.9,335,100.4s-5.1,27.9-15.4,37.6-23.7,14.6-40.2,14.6-29.7-4.8-39.9-14.5S224.1,115.7,224.1,100.3Z"/><path class="cls-2" d="M386,31.8v88.7h27.7c12.6,0,22.9-4.1,30.9-12.4s12-18.9,12-32-4-23.7-12-31.9-18.3-12.3-30.9-12.3L386,31.8ZM348.7,150.6V1.8h55.9c16,0,28.3,1.2,37.1,3.6A72.42,72.42,0,0,1,466,17.3,71.55,71.55,0,0,1,487.6,43a74.07,74.07,0,0,1,7.3,33.1,74,74,0,0,1-8.9,36.1,76.65,76.65,0,0,1-25.8,27.1A69.68,69.68,0,0,1,439,148c-7.7,1.7-19.2,2.6-34.4,2.6Z"/><path class="cls-2" d="M534.6,100.2c0,8.6,2.1,15.4,6.2,20.6s9.6,7.7,16.4,7.7a20.12,20.12,0,0,0,16.5-7.7c4.1-5.1,6.2-12,6.2-20.6s-2.1-15.5-6.2-20.7a21.14,21.14,0,0,0-32.8,0Q534.6,87.3,534.6,100.2Zm-32.6.1c0-15.5,5.1-28.2,15.4-37.9S541,47.8,557.3,47.8s29.8,4.9,40.1,14.7,15.5,22.4,15.5,37.9-5.1,27.9-15.4,37.6-23.7,14.6-40.2,14.6-29.7-4.8-39.9-14.5S502,115.7,502,100.3Z"/><path class="cls-2" d="M708.4,146a68.44,68.44,0,0,1-15.1,4.9,84.51,84.51,0,0,1-17.2,1.6c-18.1,0-32.4-4.7-43-14.1s-15.9-22.1-15.9-38.1,5.2-28.7,15.7-38.3,24.4-14.5,41.8-14.5A79.38,79.38,0,0,1,706.5,54V78.8a97.09,97.09,0,0,0-14.7-4.9,50.69,50.69,0,0,0-12.3-1.6c-9.1,0-16.2,2.5-21.3,7.4s-7.7,11.8-7.7,20.5c0,8.9,2.6,15.7,7.8,20.6s12.7,7.3,22.4,7.3a54.64,54.64,0,0,0,13-1.7,87.46,87.46,0,0,0,14.5-5.1l.2,24.7Z"/><path class="cls-1" d="M724.9,71.7H710.5V64.9l41.2-44.6h4.8V49.7h34.4v22H756.5V109c0,7.7,1.1,12.9,3.3,15.5s6.2,3.9,12,3.9a37.2,37.2,0,0,0,9-1.2,55.34,55.34,0,0,0,10.1-3.8l.2,23.8a97.32,97.32,0,0,1-15.3,4.3,87.72,87.72,0,0,1-15.2,1.4c-12.9,0-22-3.3-27.5-9.9s-8.2-18-8.2-34.1V71.7Z"/><polygon class="cls-1" points="801.3 150.6 801.3 49.7 833.1 49.7 833.1 150.6 801.3 150.6"/><polygon class="cls-1" points="882 152.5 835.3 49.7 868.9 49.7 891.1 104.4 912 49.7 945.2 49.7 901.4 152.5 882 152.5"/><path class="cls-2" d="M947.4,17.1A16.36,16.36,0,0,1,952.3,5a16.39,16.39,0,0,1,12-5,16.21,16.21,0,0,1,12.1,4.9A16.36,16.36,0,0,1,981.3,17a16,16,0,0,1-4.9,12,17.14,17.14,0,0,1-24.1-.1A15.55,15.55,0,0,1,947.4,17.1Z"/><rect class="cls-3" x="948.5" y="49.7" width="31.8" height="100.9"/><path class="cls-1" d="M1001.9,71.7H987.5V64.9l41.2-44.6h4.8V49.7h34.4v22h-34.4V109c0,7.7,1.1,12.9,3.3,15.5s6.2,3.9,12,3.9a37.2,37.2,0,0,0,9-1.2,55.34,55.34,0,0,0,10.1-3.8l.2,23.8a97.32,97.32,0,0,1-15.3,4.3,87.72,87.72,0,0,1-15.2,1.4c-12.9,0-22-3.3-27.5-9.9s-8.2-18-8.2-34.1V71.7Z"/><polygon class="cls-1" points="1105.1 200 1071.8 200 1101.7 134.4 1063.3 49.7 1097.3 49.7 1117.7 98.9 1139.6 49.7 1173.1 49.7 1105.1 200"/></svg>