<svg xmlns="http://www.w3.org/2000/svg" viewBox="0 0 21.51 18.09"><defs><style>.cls-1{fill:#0073bc;}.cls-2{fill:#838383;}.cls-3{fill:#ffae00;}</style></defs><title>barcode-pro</title><g id="Layer_2" data-name="Layer 2"><g id="Layer_1-2" data-name="Layer 1"><rect class="cls-1" y="13.97" width="0.76" height="4.12"/><rect class="cls-1" x="1.68" y="15.66" width="0.76" height="4.12" transform="translate(19.77 15.66) rotate(90)"/><rect class="cls-1" x="19.07" y="15.66" width="0.76" height="4.12" transform="translate(1.74 37.17) rotate(-90)"/><rect class="cls-1" x="20.76" y="13.97" width="0.76" height="4.12"/><rect class="cls-1" width="0.76" height="4.12"/><rect class="cls-1" x="1.68" y="-1.68" width="0.76" height="4.12" transform="translate(1.68 2.44) rotate(-90)"/><rect class="cls-1" x="19.07" y="-1.68" width="0.76" height="4.12" transform="translate(19.83 -19.07) rotate(90)"/><rect class="cls-1" x="20.76" width="0.76" height="4.12"/><rect class="cls-2" x="3.56" y="2.77" width="1.04" height="6.14"/><rect class="cls-2" x="3.56" y="11.37" width="1.04" height="3.69"/><rect class="cls-2" x="7.2" y="2.77" width="0.52" height="6.14"/><rect class="cls-2" x="7.2" y="11.37" width="0.52" height="3.69"/><rect class="cls-2" x="8.15" y="2.77" width="1.56" height="6.14"/><rect class="cls-2" x="8.15" y="11.37" width="1.56" height="3.69"/><rect class="cls-2" x="17.39" y="2.77" width="1.56" height="6.14"/><rect class="cls-2" x="17.39" y="11.37" width="1.56" height="3.69"/><rect class="cls-2" x="14.69" y="2.77" width="1.18" height="6.14"/><rect class="cls-2" x="14.69" y="11.37" width="1.18" height="3.69"/><rect class="cls-2" x="13.01" y="2.77" width="0.59" height="6.14"/><rect class="cls-2" x="13.01" y="11.37" width="0.59" height="3.69"/><rect class="cls-2" x="10.56" y="2.77" width="0.59" height="6.14"/><rect class="cls-2" x="10.56" y="11.37" width="0.59" height="3.69"/><rect class="cls-2" x="5.12" y="2.77" width="0.67" height="6.14"/><rect class="cls-2" x="5.12" y="11.37" width="0.67" height="3.69"/><rect class="cls-3" x="2.28" y="9.63" width="17.75" height="0.71"/></g></g></svg>