<svg xmlns="http://www.w3.org/2000/svg" viewBox="0 0 18.97 18.56"><defs><style>.cls-1{fill:#ff9c00;}.cls-2{fill:#838383;}.cls-3{fill:#0073bc;}</style></defs><title>external-properties</title><g id="Layer_2" data-name="Layer 2"><g id="Layer_1-2" data-name="Layer 1"><path class="cls-1" d="M3.5,8.92a.22.22,0,0,1,.13,0H9.42c.09,0,.12,0,.12.12,0,1.93,0,3.87,0,5.8v.12l-.09-.08-2.1-2.1c-.06-.06-.09-.07-.16,0L4,16c-.06.06-.09.06-.16,0-.45-.46-.9-.92-1.36-1.37-.06-.05-.06-.08,0-.14l3.25-3.25c.07-.06.07-.09,0-.16L3.59,9Z"/><path class="cls-2" d="M15.52,8.48H13.94v0c0-.28-.1-.55-.14-.83,0,0,0,0,0,0a3.14,3.14,0,0,1-.68-.28s0,0-.06,0l-.74.52s0,0-.06,0c-.35-.34-.7-.69-1-1,0,0,0,0,0-.06.17-.25.35-.49.52-.73,0,0,0-.05,0-.07a4.06,4.06,0,0,1-.27-.65s0,0-.05-.06l-.92-.15V3.49h.06l.87-.13s0,0,0,0a3.91,3.91,0,0,1,.27-.67.06.06,0,0,0,0-.08l-.52-.71s0,0,0-.06l1.06-1a0,0,0,0,1,.07,0l.71.5a.06.06,0,0,0,.07,0A3.11,3.11,0,0,1,13.73,1a.06.06,0,0,0,0,0c.05-.29.09-.58.14-.88,0,0,0,0,.05,0h1.48s.05,0,.05.05c.05.29.1.58.14.86a.07.07,0,0,0,0,0,3.16,3.16,0,0,1,.66.27.08.08,0,0,0,.08,0l.72-.5a0,0,0,0,1,.07,0c.34.36.69.71,1,1.07,0,0,0,0,0,.06l-.52.72s0,0,0,.06a2.7,2.7,0,0,1,.27.66s0,0,.05,0l.92.16V5.05l-.32,0-.58.09s0,0-.05,0a3,3,0,0,1-.27.67s0,0,0,.06c.18.25.35.5.53.74,0,0,0,0,0,.06l-1,1a0,0,0,0,1-.07,0l-.72-.51a.07.07,0,0,0-.09,0,2.89,2.89,0,0,1-.63.26.1.1,0,0,0-.06.08L15.6,8C15.57,8.16,15.55,8.32,15.52,8.48Zm-.81-5.85a1.64,1.64,0,1,0,1.63,1.64A1.64,1.64,0,0,0,14.71,2.63Z"/><rect class="cls-3" y="1.93" width="0.76" height="16.63"/><rect class="cls-3" x="8.58" y="9.22" width="0.76" height="17.92" transform="translate(27.14 9.22) rotate(90)"/><rect class="cls-3" x="17.19" y="10.45" width="0.73" height="7.74"/><rect class="cls-3" x="3.5" y="-2.28" width="0.73" height="7.74" transform="translate(5.46 -2.28) rotate(90)"/></g></g></svg>