<svg xmlns="http://www.w3.org/2000/svg" viewBox="0 0 21.15 19.69"><defs><style>.cls-1{fill:#ff9c00;}.cls-2{fill:#0073bc;}</style></defs><title>webhooks</title><g id="Layer_2" data-name="Layer 2"><g id="Layer_1-2" data-name="Layer 1"><path class="cls-1" d="M9.91,8.25C9,9.73,8.19,11.17,7.33,12.59a1.11,1.11,0,0,0-.15,1.12,2.11,2.11,0,0,1-1.5,2.87A2.14,2.14,0,0,1,3,14.79a2.19,2.19,0,0,1,2-2.46,3.47,3.47,0,0,1,.4,0L7.32,9.05A5.31,5.31,0,0,1,5.54,4.67,5,5,0,0,1,7,1.47,5.08,5.08,0,0,1,13.36.81a4.93,4.93,0,0,1,2.06,5.73l-1.77-.48A3.37,3.37,0,0,0,12.93,3,3,3,0,0,0,11,2a3.12,3.12,0,0,0-3.41,2.2c-.5,1.67.25,3,2.3,4.06Z"/><path class="cls-2" d="M12.43,6.5,14.3,9.81a5.14,5.14,0,0,1,6.38,2.64A5.09,5.09,0,0,1,19,18.77a5,5,0,0,1-6.54-.65l1.45-1.21c1.81,1.18,3.4,1.12,4.58-.27a3.16,3.16,0,0,0,0-4.13c-1.19-1.34-2.79-1.38-4.73-.09-.8-1.43-1.62-2.84-2.39-4.27a1.47,1.47,0,0,0-1.15-.87,2,2,0,0,1-1.66-2,2.15,2.15,0,0,1,3.82-1.46,2,2,0,0,1,.37,2c-.07.2-.16.4-.25.64Z"/><path class="cls-2" d="M13.91,15.44h-3.8a5.21,5.21,0,0,1-2.5,3.48,5.08,5.08,0,0,1-3.4.6,5.07,5.07,0,0,1-.28-9.94l.48,1.76c-2.14,1.09-2.89,2.47-2.29,4.2a3.13,3.13,0,0,0,3.66,2c1.67-.33,2.51-1.72,2.41-3.94,1.58,0,3.16,0,4.73,0a1.71,1.71,0,0,0,1.56-.6,2.06,2.06,0,0,1,3,0,2.15,2.15,0,1,1-3.11,3,6.07,6.07,0,0,1-.46-.61Z"/></g></g></svg>